<?xml version="1.0" encoding="UTF-8" standalone="no"?>
<!DOCTYPE svg PUBLIC "-//W3C//DTD SVG 1.1//EN" "http://www.w3.org/Graphics/SVG/1.1/DTD/svg11.dtd">
<svg width="100%" height="100%" viewBox="0 0 519 582" version="1.1" xmlns="http://www.w3.org/2000/svg" xmlns:xlink="http://www.w3.org/1999/xlink" xml:space="preserve" xmlns:serif="http://www.serif.com/" style="fill-rule:evenodd;clip-rule:evenodd;stroke-linejoin:round;stroke-miterlimit:1.41421;">
    <g transform="matrix(1,0,0,1,-349.428,-109.428)">
        <path d="M867.665,580.486C814.418,647.542 732.194,690.572 640,690.572C479.629,690.572 349.428,560.371 349.428,400C349.428,239.629 479.629,109.428 640,109.428C732.194,109.428 814.418,152.458 867.665,219.514L867.665,580.486ZM817.914,402.387L817.914,570.637C794.37,588.448 766.691,602.761 734.875,613.575C703.06,624.388 671.669,629.795 640.701,629.795C596.372,629.795 555.86,619.618 519.166,599.262C482.472,578.907 453.626,551.024 432.628,515.614C411.63,480.204 401.131,441.189 401.131,398.57C401.131,355.527 411.842,316.565 433.264,281.685C454.687,246.805 484.116,219.24 521.552,198.991C558.989,178.741 600.296,168.617 645.474,168.617C677.713,168.617 709.317,174.395 740.284,185.951C771.251,197.507 798.082,213.038 820.777,232.546L776.872,289.159C759.055,272.62 738.64,259.792 715.627,250.675C692.614,241.557 669.229,236.998 645.474,236.998C615.143,236.998 587.251,244.154 561.799,258.467C536.347,272.779 516.197,292.34 501.349,317.148C486.502,341.956 479.079,369.097 479.079,398.57C479.079,428.467 486.502,455.82 501.349,480.628C516.197,505.436 536.4,524.996 561.958,539.309C587.516,553.621 615.567,560.778 646.11,560.778C663.078,560.778 680.683,558.074 698.924,552.667C717.165,547.26 734.451,539.574 750.783,529.608L750.783,402.387L817.914,402.387Z" style="fill:rgb(255,195,8);"/>
    </g>
</svg>
