<?xml version="1.0" encoding="UTF-8" standalone="no"?>
<!DOCTYPE svg PUBLIC "-//W3C//DTD SVG 1.1//EN" "http://www.w3.org/Graphics/SVG/1.1/DTD/svg11.dtd">
<svg width="100%" height="100%" viewBox="0 0 582 582" version="1.1" xmlns="http://www.w3.org/2000/svg" xmlns:xlink="http://www.w3.org/1999/xlink" xml:space="preserve" xmlns:serif="http://www.serif.com/" style="fill-rule:evenodd;clip-rule:evenodd;stroke-linejoin:round;stroke-miterlimit:1.41421;">
    <g transform="matrix(1,0,0,1,-349.428,-109.428)">
        <path d="M640,109.428C800.371,109.428 930.572,239.629 930.572,400C930.572,560.371 800.371,690.572 640,690.572C479.629,690.572 349.428,560.371 349.428,400C349.428,239.629 479.629,109.428 640,109.428ZM512.579,624.705L519.896,570.318C556.166,587.493 591.906,596.08 627.115,596.08C697.745,596.08 733.06,558.656 733.06,483.807L733.06,429.42C709.941,477.764 671.975,501.936 619.161,501.936C577.801,501.936 544.925,486.882 520.533,456.773C496.141,426.664 483.945,386.059 483.945,334.958C483.945,282.373 497.838,239.542 525.623,206.464C553.409,173.386 589.36,156.847 633.478,156.847C672.081,156.847 705.275,172.538 733.06,203.92L733.06,164.481L796.055,164.481L796.055,415.744C796.055,469.813 793.245,509.835 787.624,535.809C782.003,561.784 771.451,583.04 755.968,599.579C728.606,628.628 686.079,643.153 628.387,643.153C588.088,643.153 549.485,637.003 512.579,624.705ZM733.06,390.299L733.06,246.857C705.487,218.232 675.474,203.92 643.022,203.92C614.176,203.92 591.587,215.475 575.255,238.587C558.923,261.699 550.757,293.399 550.757,333.686C550.757,409.383 577.376,447.231 630.614,447.231C666.884,447.231 701.033,428.254 733.06,390.299Z" style="fill:rgb(255,195,8);"/>
    </g>
</svg>
